<?xml version="1.0" standalone="no"?>
<!DOCTYPE svg PUBLIC "-//W3C//DTD SVG 20010904//EN"
 "http://www.w3.org/TR/2001/REC-SVG-20010904/DTD/svg10.dtd">
<svg version="1.0" xmlns="http://www.w3.org/2000/svg"
 width="400.000000pt" height="400.000000pt" viewBox="0 0 400.000000 400.000000"
 preserveAspectRatio="xMidYMid meet">
<metadata>
Created by potrace 1.11, written by Peter Selinger 2001-2013
</metadata>
<g transform="translate(0.000000,400.000000) scale(0.100000,-0.100000)"
fill="#000000" stroke="none">
<path d="M1945 3925 c3 -41 13 -100 20 -132 7 -32 11 -61 9 -64 -2 -4 1 -20 6
-35 6 -16 23 -71 37 -124 14 -52 28 -103 30 -112 5 -15 -2 -18 -43 -18 -207 0
-586 -90 -767 -182 l-59 -29 -36 28 c-118 91 -322 187 -462 216 -287 61 -456
89 -563 94 l-117 5 0 -29 0 -30 100 -7 c256 -18 606 -110 766 -202 35 -20 42
-30 48 -65 4 -23 5 -43 3 -45 -2 -2 -39 12 -83 31 -177 76 -351 100 -609 85
-88 -5 -175 -12 -192 -16 l-33 -6 0 -249 c0 -137 2 -249 5 -249 2 0 25 13 50
29 54 34 187 92 302 132 144 50 406 80 480 54 l34 -12 -115 -102 c-64 -56
-116 -105 -116 -109 -1 -4 -28 -36 -61 -72 -61 -65 -214 -265 -304 -395 -91
-132 -169 -322 -235 -575 -40 -152 -40 -156 -38 -309 l3 -155 33 64 c19 35 81
135 139 223 84 128 107 157 114 144 6 -9 14 -66 19 -127 16 -182 27 -238 100
-532 38 -155 70 -292 70 -305 0 -17 6 -23 20 -23 15 0 28 14 46 53 l25 52 -7
-55 c-3 -30 -12 -86 -19 -125 -40 -218 4 -549 83 -622 24 -22 30 -23 203 -23
99 0 179 2 179 5 0 3 -18 40 -40 83 -41 77 -70 186 -69 252 l1 35 10 -35 c5
-19 16 -42 24 -51 8 -8 14 -20 14 -25 0 -11 65 -114 77 -123 5 -3 31 -36 58
-73 l50 -68 387 0 387 0 11 58 c6 31 18 80 26 108 l14 51 62 13 c54 10 70 20
130 72 37 34 71 59 74 56 3 -4 0 -52 -7 -108 -12 -101 -13 -102 -66 -168 -29
-37 -53 -70 -53 -74 0 -5 61 -8 135 -8 l134 0 11 39 c9 36 16 41 98 78 l87 40
-52 11 c-29 7 -59 9 -68 6 -31 -12 -13 6 47 46 l63 42 23 -29 c15 -17 26 -23
29 -16 4 10 103 136 120 153 3 3 -7 -19 -21 -48 -15 -30 -26 -56 -23 -58 2 -2
41 15 88 39 l84 42 -2 -120 c-2 -131 13 -127 18 5 l3 75 5 -100 6 -100 31 120
c42 160 92 274 157 360 100 131 139 206 209 399 49 138 65 166 96 166 19 0 23
-4 17 -17 -51 -118 -102 -282 -124 -405 -19 -102 -14 -124 13 -61 l16 38 -6
-80 c-6 -80 -20 -115 -95 -238 l-17 -29 -42 59 c-22 32 -46 58 -53 58 -15 0
-99 -167 -128 -253 -12 -37 -32 -83 -45 -102 -12 -19 -25 -54 -29 -77 l-7 -43
561 0 561 0 0 465 c0 256 -3 465 -6 465 -9 0 -158 -106 -256 -182 -48 -37 -90
-68 -92 -68 -16 0 -68 355 -65 445 1 29 1 30 9 5 11 -35 11 -3 0 45 -14 62 1
78 368 396 37 32 42 42 42 79 0 36 -2 41 -15 30 -12 -10 -18 -6 -35 22 -11 18
-20 43 -20 54 0 12 -11 32 -24 45 -21 21 -96 200 -96 229 0 12 -55 181 -69
215 -16 35 -41 105 -38 105 21 1 179 21 230 30 l67 12 0 63 0 63 -43 10 c-49
13 -332 152 -424 209 -40 24 -78 59 -107 98 -90 121 -264 268 -425 361 -78 45
-236 115 -328 144 -118 38 -121 40 -136 78 -40 101 -45 324 -11 501 7 42 14
77 14 79 0 1 -91 2 -201 2 l-201 0 8 -107 c13 -163 11 -211 -16 -267 l-23 -50
-13 25 c-15 29 -57 195 -74 289 -20 116 -17 110 -51 110 l-31 0 7 -75z m440
-582 c106 -19 380 -110 491 -162 128 -60 297 -177 384 -267 75 -77 75 -77 25
-44 -46 30 -179 130 -328 245 -99 76 -86 50 29 -58 254 -241 361 -321 584
-440 106 -56 228 -109 330 -142 30 -10 60 -20 65 -24 18 -10 -67 -20 -180 -20
-260 -1 -453 38 -637 129 l-57 28 30 -81 c68 -183 109 -427 109 -637 l-1 -115
-37 75 c-80 157 -243 404 -412 621 -82 105 -292 350 -297 345 -2 -1 14 -56 36
-122 45 -140 56 -184 44 -184 -5 0 -59 34 -120 75 -131 87 -244 157 -248 153
-2 -2 41 -57 94 -123 l98 -121 -52 -15 c-42 -13 -56 -13 -69 -3 -16 11 -16 13
1 23 15 9 13 10 -15 11 -26 0 -56 18 -140 84 -156 122 -296 226 -305 226 -4 0
6 -26 22 -57 15 -32 44 -107 64 -168 20 -60 57 -159 82 -220 26 -60 49 -119
52 -130 3 -11 -70 58 -162 153 -91 94 -170 172 -174 172 -10 0 3 -58 44 -192
18 -60 31 -108 30 -108 -17 0 -186 331 -231 452 -21 56 -34 78 -46 78 -15 0
-18 9 -18 49 0 73 -12 142 -23 138 -15 -5 -38 -75 -41 -122 -1 -22 -3 -50 -4
-63 -1 -13 -13 -33 -27 -46 -16 -15 -34 -52 -49 -102 -13 -44 -26 -78 -30 -76
-3 1 -16 2 -27 2 -20 0 -21 3 -14 68 7 65 7 67 -12 50 -10 -10 -27 -40 -37
-68 -14 -40 -24 -51 -45 -56 -14 -3 -51 -14 -82 -25 -31 -10 -61 -19 -67 -19
-20 0 -132 -125 -161 -180 -31 -59 -50 -140 -32 -140 5 0 14 15 20 34 15 56
110 180 126 164 3 -2 -3 -45 -12 -94 -14 -71 -17 -147 -18 -377 l0 -288 -18
63 c-27 95 -28 97 -38 63 -9 -31 -48 -384 -50 -452 -1 -31 -5 -24 -20 42 -37
152 -70 370 -81 542 -6 95 -15 170 -19 167 -11 -6 -46 -104 -79 -219 -40 -138
-76 -332 -95 -510 -9 -82 -19 -179 -23 -214 l-7 -65 -32 110 c-38 128 -51 225
-59 424 -6 145 7 457 21 495 21 62 -165 -204 -300 -427 -32 -54 -61 -96 -63
-94 -5 6 50 210 88 326 42 127 182 411 268 540 149 227 370 449 647 649 209
152 471 246 785 281 58 6 114 13 125 15 44 8 325 -7 400 -22z m-929 -844 c40
-151 213 -489 330 -644 64 -85 139 -160 131 -130 -8 26 -47 250 -47 266 0 16
20 7 138 -63 98 -58 240 -123 249 -114 3 2 -14 48 -37 103 -67 158 -67 161
-30 232 49 91 119 136 258 166 53 11 89 12 140 6 128 -16 201 -70 263 -193 22
-43 37 -84 33 -90 -4 -6 -3 -8 3 -5 13 8 50 -87 66 -170 l12 -64 15 37 16 38
19 -80 c30 -124 26 -241 -14 -404 -42 -169 -89 -305 -150 -434 -41 -87 -56
-108 -104 -146 -35 -28 -56 -53 -57 -66 0 -24 -82 -112 -158 -169 -29 -22 -56
-41 -61 -43 -5 -1 -11 15 -15 38 l-6 40 -53 -5 c-245 -26 -554 -20 -708 14
-117 26 -192 52 -283 97 -127 64 -149 84 -195 180 -43 91 -60 139 -45 132 5
-2 38 -18 73 -36 36 -17 67 -30 69 -27 2 2 -15 27 -39 55 -43 51 -43 52 -40
121 2 72 -11 92 -29 44 -11 -30 -30 -33 -37 -5 -3 11 -9 20 -13 20 -10 0 -72
188 -68 205 2 11 14 8 51 -9 52 -26 53 -25 33 7 -8 12 -30 66 -50 119 -41 112
-47 199 -21 333 26 137 76 191 189 202 40 4 66 -1 121 -21 39 -15 81 -34 93
-42 38 -25 37 -8 -3 47 -32 45 -34 51 -16 46 12 -3 21 -1 21 4 0 13 -79 68
-107 75 -19 5 -23 13 -23 44 0 26 5 40 17 44 11 4 13 10 7 16 -7 7 -7 36 -3
78 4 37 10 107 14 155 4 56 11 87 18 84 6 -2 20 -41 33 -88z m582 -67 c-14
-16 -1 -29 14 -14 8 8 22 2 54 -25 l44 -35 -32 -45 c-18 -25 -36 -47 -40 -49
-9 -6 -64 115 -125 276 -3 8 17 -10 44 -40 38 -41 48 -58 41 -68z m-741 94
c-2 -6 -12 -52 -23 -103 -10 -54 -21 -87 -26 -80 -8 12 -11 180 -4 188 10 10
57 6 53 -5z m-137 -43 c-33 -103 -81 -272 -86 -304 -4 -22 -9 -38 -11 -35 -6
6 -43 236 -43 268 0 24 9 32 73 62 39 20 73 36 74 36 1 0 -2 -12 -7 -27z
m2303 -158 c73 -7 79 -9 88 -34 23 -58 59 -228 68 -319 13 -125 20 -292 12
-292 -3 0 -16 29 -28 64 -38 109 -152 376 -209 490 -49 99 -52 108 -31 103 12
-3 57 -9 100 -12z m209 -137 c26 -69 63 -188 83 -265 20 -76 52 -191 72 -256
28 -90 34 -120 25 -129 -8 -8 -15 -8 -21 -2 -14 15 -241 748 -241 780 0 3 8 4
17 2 12 -2 32 -42 65 -130z m-512 -678 c24 -52 49 -111 58 -130 l16 -35 7 30
c3 17 7 66 8 110 1 62 4 76 12 62 16 -27 -6 -286 -36 -433 -28 -136 -64 -244
-123 -360 -52 -104 -110 -179 -227 -294 -87 -85 -95 -91 -77 -54 33 66 119
286 126 322 8 43 -5 40 -27 -7 -16 -36 -107 -124 -107 -104 0 5 15 38 34 73
51 97 152 346 185 460 33 108 91 380 91 422 0 22 9 42 16 36 1 -2 21 -46 44
-98z m386 -282 c-14 -53 -18 -247 -7 -332 7 -48 10 -90 7 -93 -2 -3 -13 23
-24 57 l-19 62 -41 -73 c-76 -138 -89 -155 -96 -133 -3 10 -6 64 -7 119 -2 91
1 109 34 202 28 81 45 114 84 158 51 58 80 72 69 33z m-2336 -86 c0 -13 -12
-22 -22 -16 -10 6 -1 24 13 24 5 0 9 -4 9 -8z m1550 -450 c0 -4 -31 -58 -69
-120 -39 -63 -64 -112 -57 -112 7 0 27 5 45 11 18 6 34 9 36 7 2 -2 -18 -41
-45 -87 -28 -45 -50 -86 -50 -90 0 -4 -5 -12 -11 -18 -12 -12 -40 25 -97 121
-22 37 -22 40 -6 65 26 39 175 191 209 212 32 20 45 23 45 11z m-375 -234
c-13 -88 -16 -90 -84 -60 l-41 19 23 20 c25 24 88 63 100 63 5 0 6 -19 2 -42z
m-90 -90 c24 -11 26 -16 20 -47 -3 -20 -7 -49 -9 -64 -1 -16 -15 -40 -31 -55
l-27 -27 6 40 c3 22 6 68 6 103 0 34 2 62 5 62 2 0 16 -5 30 -12z"/>
<path d="M2170 2827 c-76 -23 -137 -54 -160 -82 -23 -27 -3 -27 50 0 142 72
360 88 509 38 65 -22 138 -60 194 -100 69 -51 69 -34 0 21 -70 55 -177 110
-258 131 -89 23 -242 19 -335 -8z"/>
<path d="M2511 2270 c-61 -21 -74 -31 -94 -81 l-14 -35 51 4 c71 6 106 -22
113 -91 4 -35 9 -47 19 -43 9 4 14 -2 14 -15 0 -15 -5 -19 -15 -15 -9 3 -21
-4 -31 -19 -19 -30 -75 -49 -121 -42 -29 5 -33 3 -29 -11 7 -22 56 -262 56
-273 0 -4 99 -8 220 -8 l220 0 7 27 c5 15 7 72 7 127 -4 210 -96 407 -217 463
-62 29 -123 33 -186 12z"/>
<path d="M1288 1993 c-29 -5 -70 -52 -93 -107 l-15 -35 36 6 c67 11 114 -37
114 -117 0 -70 -37 -120 -90 -120 -17 0 -21 -4 -15 -17 3 -10 18 -61 31 -113
46 -174 54 -200 67 -200 7 0 74 50 150 110 l137 110 0 47 c0 60 -33 178 -75
270 -57 124 -145 183 -247 166z m72 -243 c0 -5 -4 -10 -10 -10 -5 0 -10 5 -10
10 0 6 5 10 10 10 6 0 10 -4 10 -10z"/>
<path d="M1093 1670 c0 -36 2 -50 4 -32 2 17 2 47 0 65 -2 17 -4 3 -4 -33z"/>
<path d="M2912 1579 c-46 -39 -85 -69 -88 -66 -3 3 6 28 20 56 15 28 23 51 18
51 -4 0 -29 -43 -55 -95 -26 -52 -42 -95 -37 -95 6 0 13 7 16 14 7 19 183 170
190 163 3 -2 -2 -23 -11 -45 -9 -23 -15 -49 -13 -59 2 -11 16 12 33 57 17 41
32 78 33 82 11 25 -34 -2 -106 -63z"/>
<path d="M2751 1541 c-18 -34 -30 -65 -27 -68 2 -3 10 6 17 19 7 12 21 38 31
57 10 18 17 38 15 45 -2 6 -18 -18 -36 -53z"/>
<path d="M2585 1343 c-11 -2 -67 -13 -124 -24 -250 -49 -517 -161 -538 -224
-18 -56 10 -144 65 -202 37 -39 111 -77 180 -92 63 -13 182 -15 182 -2 0 13
-37 21 -100 21 -63 0 -130 27 -154 61 -20 30 -21 128 -2 193 26 84 79 133 171
157 16 4 68 17 115 29 47 12 121 28 165 35 l80 13 37 -41 c20 -22 48 -65 63
-95 23 -46 26 -65 23 -113 -3 -39 -11 -66 -24 -80 -13 -15 -14 -20 -5 -17 35
11 56 58 56 127 0 58 -5 78 -38 145 -49 98 -85 124 -152 109z"/>
<path d="M1263 1140 c0 -30 2 -43 4 -27 2 15 2 39 0 55 -2 15 -4 2 -4 -28z"/>
<path d="M2990 3993 c1 -5 22 -21 48 -37 93 -58 215 -160 332 -276 l118 -119
-34 -110 c-43 -144 -59 -221 -51 -253 8 -30 48 -62 228 -182 125 -84 186 -134
307 -250 l62 -60 0 100 0 100 -44 21 c-40 20 -144 96 -381 277 -49 38 -91 70
-92 71 -1 1 13 50 31 111 18 60 40 136 47 168 l13 60 -70 64 c-83 77 -278 235
-353 286 -45 30 -62 36 -107 36 -30 0 -54 -3 -54 -7z"/>
<path d="M3950 3995 c0 -3 9 -14 20 -25 26 -26 30 -25 30 5 0 20 -5 25 -25 25
-14 0 -25 -2 -25 -5z"/>
<path d="M3937 3602 l-57 -127 25 -20 c53 -43 83 -65 89 -65 11 0 6 89 -5 96
-8 5 -8 8 0 14 8 4 11 42 9 117 l-3 111 -58 -126z"/>
<path d="M1 2141 l-1 -173 25 23 c30 29 33 94 9 197 -31 133 -32 132 -33 -47z"/>
</g>
</svg>
